<svg width="234" height="122" viewBox="0 0 234 122" fill="none" xmlns="http://www.w3.org/2000/svg">
<path d="M9.45976 88V35.7627H18.8915V88H9.45976ZM16.2796 60.8656L41.0198 35.7627H53.7163L27.9605 60.8656H16.2796ZM42.1806 88L16.1345 60.8656H27.9605L55.1674 88H42.1806ZM72.603 88.7255C68.6852 88.7255 65.2269 87.9033 62.2281 86.2588C59.2777 84.6143 56.9802 82.341 55.3357 79.4389C53.6912 76.4885 52.8689 73.1269 52.8689 69.3542C52.8689 65.5815 53.6912 62.2683 55.3357 59.4146C56.9802 56.5609 59.2777 54.336 62.2281 52.7398C65.2269 51.0953 68.6852 50.2731 72.603 50.2731C76.5692 50.2731 80.0275 51.0953 82.9779 52.7398C85.9284 54.336 88.2258 56.5609 89.8703 59.4146C91.5148 62.2683 92.3371 65.5815 92.3371 69.3542C92.3371 73.1269 91.4907 76.4885 89.7978 79.4389C88.1533 82.341 85.8558 84.6143 82.9054 86.2588C79.9549 87.9033 76.5208 88.7255 72.603 88.7255ZM72.603 81.3978C74.5377 81.3978 76.279 80.9141 77.8267 79.9468C79.3745 78.931 80.5837 77.5284 81.4543 75.7388C82.325 73.9008 82.7603 71.7484 82.7603 69.2816C82.7603 65.6541 81.7929 62.8004 79.8582 60.7205C77.9718 58.6407 75.5535 57.6008 72.603 57.6008C69.6526 57.6008 67.21 58.6407 65.2753 60.7205C63.3406 62.8004 62.3732 65.6541 62.3732 69.2816C62.3732 71.7484 62.8085 73.9008 63.6792 75.7388C64.5981 77.5284 65.8073 78.931 67.3067 79.9468C68.8545 80.9141 70.6199 81.3978 72.603 81.3978ZM97.6101 88V50.9986H106.534V59.7048H106.752V88H97.6101ZM122.495 88V64.1305C122.495 61.9539 121.939 60.3578 120.827 59.3421C119.763 58.278 118.239 57.7459 116.256 57.7459C114.515 57.7459 112.919 58.157 111.468 58.9793C110.016 59.8016 108.856 60.9624 107.985 62.4618C107.163 63.9612 106.752 65.7024 106.752 67.6855L105.808 59.197C107.066 56.4884 108.88 54.336 111.25 52.7398C113.62 51.0953 116.377 50.2731 119.521 50.2731C123.293 50.2731 126.268 51.3614 128.445 53.5379C130.621 55.6661 131.709 58.4231 131.709 61.8088V88H122.495ZM147.381 88V64.1305C147.381 61.9539 146.849 60.3578 145.784 59.3421C144.72 58.278 143.197 57.7459 141.214 57.7459C139.424 57.7459 137.804 58.157 136.353 58.9793C134.902 59.8016 133.765 60.9624 132.943 62.4618C132.121 63.9612 131.709 65.7024 131.709 67.6855L130.113 59.197C131.323 56.4884 133.16 54.336 135.627 52.7398C138.094 51.0953 140.948 50.2731 144.188 50.2731C148.058 50.2731 151.081 51.3855 153.257 53.6105C155.482 55.787 156.595 58.6891 156.595 62.3167V88H147.381ZM164.176 88V50.9986H173.318V88H164.176ZM163.741 44.9043V34.8196H173.681V44.9043H163.741ZM195.578 88.7255C190.451 88.7255 186.364 87.6614 183.316 85.5332C180.269 83.3567 178.601 80.3579 178.31 76.5368H186.654C186.896 78.4232 187.79 79.85 189.338 80.8174C190.886 81.7847 192.966 82.2684 195.578 82.2684C197.948 82.2684 199.713 81.9057 200.874 81.1801C202.083 80.4062 202.688 79.318 202.688 77.9153C202.688 76.8996 202.349 76.0773 201.672 75.4485C200.995 74.7714 199.713 74.2152 197.827 73.7799L191.878 72.4014C187.815 71.5308 184.792 70.1765 182.809 68.3385C180.874 66.4521 179.906 64.1063 179.906 61.301C179.906 57.8668 181.212 55.1824 183.824 53.2477C186.485 51.2646 190.136 50.2731 194.78 50.2731C199.375 50.2731 203.05 51.2646 205.807 53.2477C208.613 55.1824 210.161 57.8668 210.451 61.301H202.107C201.865 59.8016 201.092 58.6649 199.786 57.891C198.528 57.1171 196.787 56.7302 194.562 56.7302C192.482 56.7302 190.91 57.0688 189.846 57.7459C188.782 58.3747 188.25 59.3179 188.25 60.5754C188.25 61.5428 188.661 62.365 189.483 63.0422C190.306 63.671 191.684 64.2272 193.619 64.7109L200.003 66.1619C203.631 66.9842 206.364 68.411 208.202 70.4425C210.088 72.4739 211.031 74.8681 211.031 77.6251C211.031 81.156 209.677 83.8887 206.968 85.8234C204.26 87.7582 200.463 88.7255 195.578 88.7255ZM216.042 88V50.9986H225.184V88H216.042ZM215.607 44.9043V34.8196H225.547V44.9043H215.607Z" fill="black"/>
</svg>
