<svg width="122" height="122" viewBox="0 0 122 122" fill="none" xmlns="http://www.w3.org/2000/svg">
<path d="M16 23.5682C20.1154 22.5725 26.4872 22 32.2406 22C47.7903 22 57.0993 27.4125 57.0993 41.1878C57.0993 49.6347 53.6817 55.2075 48.3223 58.2421L61.2942 80.3804C60.2852 81.1099 58.1083 81.5293 55.0742 81.5293C51.6568 81.5293 49.4039 81.1208 47.7729 80.3804L36.9747 61.1926H35.7307C33.0538 61.1939 30.3801 61.0027 27.7279 60.62V80.4643C26.6393 81.1208 24.6973 81.5293 21.902 81.5293C19.1859 81.5293 17.1645 81.1173 16 80.4643V23.5682ZM27.5821 50.2056C29.7899 50.59 32.0239 50.7814 34.2614 50.7782C41.0202 50.7782 45.1391 48.2251 45.1391 41.8426C45.1391 35.2777 40.7888 32.5787 33.0209 32.5787C31.1979 32.5703 29.3779 32.7325 27.5821 33.0638V50.2056Z" fill="#F25A5A"/>
<path d="M106.588 83.1774C106.588 93.0317 101.595 95.7391 97.8362 97.5591C88.2393 102.21 72.8654 96.8 56.5251 95.1535C41.7297 93.2186 27.0559 91.9442 24.7753 95.2622C23.9178 96.1025 23.7356 98.8093 24.7753 99.9131C27.8431 103.169 35.8437 100.899 41.5089 99.8729C43.2667 99.5959 45.0435 100.249 46.1696 101.586C47.2959 102.923 47.601 104.741 46.9695 106.355C46.338 107.969 44.8662 109.134 43.1086 109.411C40.5474 109.8 37.9593 109.997 35.3671 110C29.8486 110 22.9102 109.048 18.9722 104.859C17.0112 102.775 15.0023 99.076 16.5506 93.2868C19.4969 82.3164 37.1328 85.0265 57.5645 87.0855C71.7904 88.5179 87.223 93.2868 93.3895 88.908C94.9613 87.7919 97.8935 85.2899 96.313 83.1774C94.7326 81.0651 92.1453 82.2105 88.7461 82.2105C71.7203 82.2105 61.6943 71.2425 61.6943 52.9401C61.6967 39.1904 67.3811 29.5756 76.6458 25.0121C80.6716 23.0291 85.3736 22 90.5792 22C95.1163 22 99.7274 22.7961 102.672 24.5439C104.502 27.1692 105.298 31.8606 104.898 35.3632C101.079 33.534 97.5793 32.5787 93.0459 32.5787C81.8275 32.5787 74.1091 38.3069 74.1091 52.1441C74.1091 65.9815 81.746 71.4726 92.4869 71.4726C95.5447 71.4416 99.6815 71.0709 104.898 70.3601C106.025 74.555 106.588 78.8274 106.588 83.1774Z" fill="#F25A5A"/>
</svg>
